<svg width="20" height="20" viewBox="0 0 20 20" fill="none" xmlns="http://www.w3.org/2000/svg">
<path d="M9.16667 8.33398V10.0007H7.5V11.6673H5.83333V10.0007H4.83333C4.5 11.0007 3.58333 11.6673 2.5 11.6673C1.08333 11.6673 0 10.584 0 9.16732C0 7.75065 1.08333 6.66732 2.5 6.66732C3.58333 6.66732 4.5 7.33398 4.83333 8.33398H9.16667ZM2.5 8.33398C2 8.33398 1.66667 8.66732 1.66667 9.16732C1.66667 9.66732 2 10.0007 2.5 10.0007C3 10.0007 3.33333 9.66732 3.33333 9.16732C3.33333 8.66732 3 8.33398 2.5 8.33398ZM13.3333 11.6673C15.5833 11.6673 20 12.7507 20 15.0007V16.6673H6.66667V15.0007C6.66667 12.7507 11.0833 11.6673 13.3333 11.6673ZM13.3333 10.0007C11.5 10.0007 10 8.50065 10 6.66732C10 4.83398 11.5 3.33398 13.3333 3.33398C15.1667 3.33398 16.6667 4.83398 16.6667 6.66732C16.6667 8.50065 15.1667 10.0007 13.3333 10.0007Z" fill="#13FF75"/>
</svg>
