<svg width="20" height="20" viewBox="0 0 20 20" fill="none" xmlns="http://www.w3.org/2000/svg">
<path d="M15.8333 15.0007V11.6673H14.1667V15.0007H12.5L15 17.5007L17.5 15.0007H15.8333ZM9.16667 3.33398C7.33333 3.33398 5.83333 4.83398 5.83333 6.66732C5.83333 8.50065 7.33333 10.0007 9.16667 10.0007C11 10.0007 12.5 8.50065 12.5 6.66732C12.5 4.83398 11 3.33398 9.16667 3.33398ZM9.16667 11.6673C5.5 11.6673 2.5 13.1673 2.5 15.0007V16.6673H10.4167C10.1667 16.0007 10 15.334 10 14.584C10 13.584 10.25 12.6673 10.75 11.7507C10.25 11.7507 9.75 11.6673 9.16667 11.6673Z" fill="white"/>
</svg>
