<svg width="20" height="20" viewBox="0 0 20 20" fill="none" xmlns="http://www.w3.org/2000/svg">
<rect width="20" height="20" rx="10" fill="url(#paint0_linear_25_49930)"/>
<path d="M13.2334 12.3833L16.3961 10.5792C16.5637 10.4834 16.6673 10.3057 16.6673 10.1149V6.50684C16.6673 6.31611 16.5637 6.1384 16.3961 6.04257L13.2334 4.23852C13.0658 4.14269 12.8577 4.14362 12.691 4.23852L9.52833 6.04257C9.36069 6.1384 9.25709 6.31611 9.25709 6.50684V12.9545L7.0391 14.2189L4.82112 12.9545V10.4248L7.0391 9.16035L8.50175 9.99492V8.29786L7.31035 7.61774C7.22841 7.57122 7.13422 7.5461 7.0391 7.5461C6.94398 7.5461 6.8498 7.57122 6.76786 7.61774L3.60523 9.42179C3.43758 9.51762 3.33398 9.69533 3.33398 9.88606V13.4942C3.33398 13.6849 3.43758 13.8626 3.60523 13.9584L6.76786 15.7625C6.9355 15.8574 7.1427 15.8574 7.31035 15.7625L10.473 13.9584C10.6406 13.8626 10.7442 13.6849 10.7442 13.4942V7.04554L10.7838 7.02321L12.9613 5.78112L15.1792 7.04554V9.57531L12.9613 10.8397L11.5005 10.007V11.7041L12.69 12.3823C12.8577 12.4772 13.0658 12.4772 13.2325 12.3823L13.2334 12.3833Z" fill="white"/>
<defs>
<linearGradient id="paint0_linear_25_49930" x1="22.6667" y1="5.75" x2="2.80484" y2="23.405" gradientUnits="userSpaceOnUse">
<stop stop-color="#7B3FE4"/>
<stop offset="1" stop-color="#A626C2"/>
</linearGradient>
</defs>
</svg>
