<svg width="20" height="20" viewBox="0 0 20 20" fill="none" xmlns="http://www.w3.org/2000/svg">
<rect width="20" height="20" rx="10" fill="black"/>
<path d="M9.99829 3.27734L5.77539 10.3718L9.99829 12.9055L14.2212 10.3718L9.99829 3.27734ZM5.77539 11.2164L9.99829 17.1284L14.2212 11.2164L9.99829 13.7501L5.77539 11.2164Z" fill="#1976D2"/>
<path d="M5.53906 11.0605L9.9984 13.8685V17.5" fill="#53D3E0"/>
<path d="M14.4574 11.0605L9.99805 13.8685V17.5" fill="#5A9DED"/>
<path d="M5.53906 10.1529L9.9984 7.64794V2.5L5.53906 10.1529Z" fill="#FFE94D"/>
<path d="M9.9984 12.9613V7.64844L5.53906 10.1534L9.9984 12.9613Z" fill="#A7DF7E"/>
<path d="M9.99805 2.5V7.64794L14.4574 10.1529L9.99805 2.5Z" fill="#FF9C92"/>
<path d="M9.99805 7.64844V12.9613L14.4574 10.1534L9.99805 7.64844Z" fill="#D797D1"/>
</svg>
