<svg width="18" height="20" viewBox="0 0 18 20" fill="none" xmlns="http://www.w3.org/2000/svg">
<path d="M0.673828 6.08009V13.9209C0.673828 14.4215 0.94137 14.8844 1.37469 15.1338L8.16501 19.0551C8.59833 19.3045 9.13177 19.3045 9.56509 19.0551L16.3554 15.1338C16.7887 14.8844 17.0563 14.4215 17.0563 13.9209V6.08009C17.0563 5.57947 16.7887 5.11661 16.3554 4.86712L9.56509 0.945904C9.13177 0.696417 8.59833 0.696417 8.16501 0.945904L1.37305 4.86712C0.939729 5.11661 0.673828 5.57947 0.673828 6.08009Z" fill="#213147"/>
<path d="M10.3455 11.5207L9.37712 14.1764C9.35086 14.2503 9.35086 14.3307 9.37712 14.4046L11.0431 18.9741L12.9701 17.8613L10.6574 11.5207C10.6049 11.3746 10.398 11.3746 10.3455 11.5207Z" fill="#12AAFF"/>
<path d="M12.2863 7.05487C12.2338 6.90879 12.027 6.90879 11.9744 7.05487L11.006 9.7106C10.9798 9.78446 10.9798 9.86489 11.006 9.93875L13.7356 17.4201L15.6626 16.3072L12.2863 7.05487Z" fill="#12AAFF"/>
<path d="M8.86336 1.23923C8.91096 1.23923 8.95856 1.25236 9.00123 1.27534L16.3496 5.51826C16.435 5.5675 16.4875 5.65942 16.4875 5.75626V14.2405C16.4875 14.3389 16.435 14.4292 16.3496 14.4785L9.00123 18.7214C8.9602 18.746 8.91096 18.7575 8.86336 18.7575C8.81576 18.7575 8.76816 18.7444 8.72548 18.7214L1.3771 14.4817C1.29175 14.4325 1.23923 14.3406 1.23923 14.2437V5.7579C1.23923 5.65942 1.29175 5.56914 1.3771 5.5199L8.72548 1.27698C8.76816 1.25236 8.81576 1.23923 8.86336 1.23923ZM8.86336 0C8.60238 0 8.33976 0.0672958 8.10505 0.203529L0.75831 4.44481C0.28888 4.71563 0 5.21625 0 5.7579V14.2421C0 14.7838 0.28888 15.2844 0.75831 15.5552L8.10669 19.7981C8.3414 19.9327 8.60238 20.0016 8.865 20.0016C9.12598 20.0016 9.38859 19.9343 9.62331 19.7981L16.9717 15.5552C17.4411 15.2844 17.73 14.7838 17.73 14.2421V5.7579C17.73 5.21625 17.4411 4.71563 16.9717 4.44481L9.62167 0.203529C9.38695 0.0672958 9.12433 0 8.86336 0Z" fill="#9DCCED"/>
<path d="M4.00391 17.4296L4.68015 15.5781L6.04084 16.709L4.76878 17.8711L4.00391 17.4296Z" fill="#213147"/>
<path d="M8.24441 5.15137H6.38147C6.24195 5.15137 6.11721 5.23836 6.06961 5.36967L2.07617 16.3176L4.00313 17.4304L8.40034 5.37459C8.44138 5.26626 8.36095 5.15137 8.24441 5.15137Z" fill="white"/>
<path d="M11.504 5.15137H9.6411C9.50158 5.15137 9.37684 5.23836 9.32924 5.36967L4.76953 17.8703L6.69649 18.9831L11.66 5.37459C11.6994 5.26626 11.6189 5.15137 11.504 5.15137Z" fill="white"/>
</svg>
