<svg width="20" height="20" viewBox="0 0 20 20" fill="none" xmlns="http://www.w3.org/2000/svg">
<path d="M15.8333 2.50065H15V0.833984H13.3333V2.50065H6.66667V0.833984H5V2.50065H4.16667C3.72464 2.50065 3.30072 2.67625 2.98816 2.98881C2.67559 3.30137 2.5 3.72529 2.5 4.16732V15.834C2.5 16.276 2.67559 16.6999 2.98816 17.0125C3.30072 17.3251 3.72464 17.5007 4.16667 17.5007H8.33333V15.834H4.16667V6.66732H15.8333V7.50065H17.5V4.16732C17.5 3.72529 17.3244 3.30137 17.0118 2.98881C16.6993 2.67625 16.2754 2.50065 15.8333 2.50065ZM18.0833 11.1257L17.25 11.959L15.5417 10.2923L16.375 9.45898C16.5417 9.28398 16.825 9.27565 17.0167 9.45898L18.0833 10.5257C18.2417 10.6923 18.2417 10.959 18.0833 11.1257ZM10 15.784L15.0583 10.734L16.7667 12.4007L11.7167 17.5007H10V15.784Z" fill="white"/>
</svg>
