<svg width="20" height="20" viewBox="0 0 20 20" fill="none" xmlns="http://www.w3.org/2000/svg">
<path d="M15.8333 15.834H4.16667V6.66732H15.8333M15.8333 2.50065H15V0.833984H13.3333V2.50065H6.66667V0.833984H5V2.50065H4.16667C3.24167 2.50065 2.5 3.25065 2.5 4.16732V15.834C2.5 16.276 2.67559 16.6999 2.98816 17.0125C3.30072 17.3251 3.72464 17.5007 4.16667 17.5007H15.8333C16.2754 17.5007 16.6993 17.3251 17.0118 17.0125C17.3244 16.6999 17.5 16.276 17.5 15.834V4.16732C17.5 3.72529 17.3244 3.30137 17.0118 2.98881C16.6993 2.67625 16.2754 2.50065 15.8333 2.50065ZM13.775 9.21732L12.8917 8.33398L8.825 12.4007L7.05833 10.634L6.175 11.5173L8.825 14.1673L13.775 9.21732Z" fill="white"/>
</svg>
