<svg width="16" height="16" viewBox="0 0 16 16" fill="none" xmlns="http://www.w3.org/2000/svg">
<path d="M13.334 7.99967C13.334 9.41416 12.7721 10.7707 11.7719 11.7709C10.7717 12.7711 9.41514 13.333 8.00065 13.333C6.58616 13.333 5.22961 12.7711 4.22942 11.7709C3.22922 10.7707 2.66732 9.41416 2.66732 7.99967C2.66732 6.58519 3.22922 5.22863 4.22942 4.22844C5.22961 3.22824 6.58616 2.66634 8.00065 2.66634C8.50732 2.66634 9.00065 2.73967 9.46732 2.87301L10.514 1.82634C9.74065 1.50634 8.89398 1.33301 8.00065 1.33301C7.12517 1.33301 6.25827 1.50545 5.44943 1.84048C4.64059 2.17551 3.90566 2.66657 3.28661 3.28563C2.03636 4.53587 1.33398 6.23156 1.33398 7.99967C1.33398 9.76778 2.03636 11.4635 3.28661 12.7137C3.90566 13.3328 4.64059 13.8238 5.44943 14.1589C6.25827 14.4939 7.12517 14.6663 8.00065 14.6663C9.76876 14.6663 11.4645 13.964 12.7147 12.7137C13.9649 11.4635 14.6673 9.76778 14.6673 7.99967M5.27398 6.71967L4.33398 7.66634L7.33398 10.6663L14.0007 3.99967L13.0607 3.05301L7.33398 8.77967L5.27398 6.71967Z" fill="#13FF75"/>
</svg>
