<svg width="20" height="20" viewBox="0 0 20 20" fill="none" xmlns="http://www.w3.org/2000/svg">
<path d="M9.99935 1.66602C8.905 1.66602 7.82137 1.88156 6.81032 2.30035C5.79927 2.71914 4.88061 3.33297 4.10679 4.10679C2.54399 5.6696 1.66602 7.78921 1.66602 9.99935C1.66602 12.2095 2.54399 14.3291 4.10679 15.8919C4.88061 16.6657 5.79927 17.2796 6.81032 17.6983C7.82137 18.1171 8.905 18.3327 9.99935 18.3327C12.2095 18.3327 14.3291 17.4547 15.8919 15.8919C17.4547 14.3291 18.3327 12.2095 18.3327 9.99935C18.3327 8.905 18.1171 7.82137 17.6983 6.81032C17.2796 5.79927 16.6657 4.88061 15.8919 4.10679C15.1181 3.33297 14.1994 2.71914 13.1884 2.30035C12.1773 1.88156 11.0937 1.66602 9.99935 1.66602ZM9.99935 3.33268C11.7675 3.33268 13.4632 4.03506 14.7134 5.2853C15.9636 6.53555 16.666 8.23124 16.666 9.99935C16.666 11.7675 15.9636 13.4632 14.7134 14.7134C13.4632 15.9636 11.7675 16.666 9.99935 16.666V3.33268Z" fill="white"/>
</svg>
