<svg width="20" height="20" viewBox="0 0 20 20" fill="none" xmlns="http://www.w3.org/2000/svg">
<path d="M2.5 4.16667C2.5 3.72464 2.67559 3.30072 2.98816 2.98816C3.30072 2.67559 3.72464 2.5 4.16667 2.5H15.8333C16.2754 2.5 16.6993 2.67559 17.0118 2.98816C17.3244 3.30072 17.5 3.72464 17.5 4.16667V15.8333C17.5 16.2754 17.3244 16.6993 17.0118 17.0118C16.6993 17.3244 16.2754 17.5 15.8333 17.5H4.16667C3.24167 17.5 2.5 16.75 2.5 15.8333V4.16667ZM5 5V15H8.33333V13.3333H6.66667V6.66667H8.33333V5H5ZM13.3333 13.3333H11.6667V15H15V5H11.6667V6.66667H13.3333V13.3333Z" fill="white"/>
</svg>
