<svg width="40" height="40" viewBox="0 0 40 40" fill="none" xmlns="http://www.w3.org/2000/svg">
<rect width="40" height="40" rx="20" fill="black"/>
<path d="M20.0005 6.55469L11.5547 20.7436L20.0005 25.8111L28.4463 20.7436L20.0005 6.55469ZM11.5547 22.4328L20.0005 34.2568L28.4463 22.4328L20.0005 27.5002L11.5547 22.4328Z" fill="#1976D2"/>
<path d="M11.082 22.1211L20.0007 27.737V34.9999" fill="#53D3E0"/>
<path d="M28.9206 22.1211L20.002 27.737V34.9999" fill="#5A9DED"/>
<path d="M11.082 20.3058L20.0007 15.2959V5L11.082 20.3058Z" fill="#FFE94D"/>
<path d="M20.0007 25.9217V15.2959L11.082 20.3058L20.0007 25.9217Z" fill="#A7DF7E"/>
<path d="M20.002 5V15.2959L28.9206 20.3058L20.002 5Z" fill="#FF9C92"/>
<path d="M20.002 15.2959V25.9217L28.9206 20.3058L20.002 15.2959Z" fill="#D797D1"/>
</svg>
