<svg width="22" height="24" viewBox="0 0 22 24" fill="none" xmlns="http://www.w3.org/2000/svg">
<path d="M0.807617 7.29553V16.7045C0.807617 17.3052 1.12867 17.8607 1.64865 18.16L9.79703 22.8655C10.317 23.1649 10.9571 23.1649 11.4771 22.8655L19.6255 18.16C20.1455 17.8607 20.4665 17.3052 20.4665 16.7045V7.29553C20.4665 6.69479 20.1455 6.13935 19.6255 5.83997L11.4771 1.13451C10.9571 0.835127 10.317 0.835127 9.79703 1.13451L1.64668 5.83997C1.1267 6.13935 0.807617 6.69479 0.807617 7.29553Z" fill="#213147"/>
<path d="M12.4147 13.8249L11.2526 17.0117C11.2211 17.1004 11.2211 17.1969 11.2526 17.2855L13.2518 22.769L15.5642 21.4336L12.789 13.8249C12.7259 13.6496 12.4778 13.6496 12.4147 13.8249Z" fill="#12AAFF"/>
<path d="M14.745 8.46549C14.682 8.29019 14.4338 8.29019 14.3708 8.46549L13.2087 11.6524C13.1772 11.741 13.1772 11.8375 13.2087 11.9261L16.4842 20.9037L18.7965 19.5683L14.745 8.46549Z" fill="#12AAFF"/>
<path d="M10.636 1.48707C10.6931 1.48707 10.7503 1.50283 10.8015 1.53041L19.6195 6.62191C19.722 6.681 19.785 6.7913 19.785 6.90751V17.0886C19.785 17.2067 19.722 17.3151 19.6195 17.3741L10.8015 22.4657C10.7522 22.4952 10.6931 22.509 10.636 22.509C10.5789 22.509 10.5218 22.4932 10.4706 22.4657L1.65252 17.3781C1.5501 17.319 1.48707 17.2087 1.48707 17.0925V6.90948C1.48707 6.7913 1.5501 6.68297 1.65252 6.62388L10.4706 1.53238C10.5218 1.50283 10.5789 1.48707 10.636 1.48707ZM10.636 0C10.3229 0 10.0077 0.080755 9.72606 0.244235L0.909971 5.33377C0.346656 5.65876 0 6.2595 0 6.90948V17.0905C0 17.7405 0.346656 18.3412 0.909971 18.6662L9.72803 23.7577C10.0097 23.9192 10.3229 24.002 10.638 24.002C10.9512 24.002 11.2663 23.9212 11.548 23.7577L20.366 18.6662C20.9293 18.3412 21.276 17.7405 21.276 17.0905V6.90948C21.276 6.2595 20.9293 5.65876 20.366 5.33377L11.546 0.244235C11.2643 0.080755 10.9492 0 10.636 0Z" fill="#9DCCED"/>
<path d="M4.80371 20.9151L5.6152 18.6934L7.24803 20.0504L5.72156 21.4449L4.80371 20.9151Z" fill="#213147"/>
<path d="M9.89359 6.18164H7.65805C7.49063 6.18164 7.34094 6.28603 7.28382 6.4436L2.4917 19.5811L4.80405 20.9165L10.0807 6.44951C10.1299 6.31952 10.0334 6.18164 9.89359 6.18164Z" fill="white"/>
<path d="M13.805 6.18164H11.5695C11.4021 6.18164 11.2524 6.28603 11.1953 6.4436L5.72363 21.4443L8.03598 22.7798L13.9922 6.44951C14.0394 6.31952 13.9429 6.18164 13.805 6.18164Z" fill="white"/>
</svg>
