<svg width="9" height="15" viewBox="0 0 9 15" fill="none" xmlns="http://www.w3.org/2000/svg">
<path d="M4.45922 0.777344L0.236328 7.8718L4.45922 10.4055L8.68212 7.8718L4.45922 0.777344ZM0.236328 8.71638L4.45922 14.6284L8.68212 8.71638L4.45922 11.2501L0.236328 8.71638Z" fill="#1976D2"/>
<path d="M0 8.56055L4.45934 11.3685V15" fill="#53D3E0"/>
<path d="M8.91832 8.56055L4.45898 11.3685V15" fill="#5A9DED"/>
<path d="M0 7.65289L4.45934 5.14794V0L0 7.65289Z" fill="#FFE94D"/>
<path d="M4.45934 10.4613V5.14844L0 7.65339L4.45934 10.4613Z" fill="#A7DF7E"/>
<path d="M4.45898 0V5.14794L8.91832 7.65289L4.45898 0Z" fill="#FF9C92"/>
<path d="M4.45898 5.14844V10.4613L8.91832 7.65339L4.45898 5.14844Z" fill="#D797D1"/>
</svg>
