<svg width="20" height="20" viewBox="0 0 20 20" fill="none" xmlns="http://www.w3.org/2000/svg">
<rect width="20" height="20" rx="10" fill="#E84142"/>
<path fill-rule="evenodd" clip-rule="evenodd" d="M7.16625 13.9803H5.22553C4.81773 13.9803 4.61629 13.9803 4.49346 13.9017C4.3608 13.8157 4.27974 13.6732 4.26991 13.516C4.26253 13.3711 4.36326 13.1942 4.5647 12.8404L9.35658 4.39408C9.56048 4.03542 9.66365 3.85608 9.79385 3.78976C9.93388 3.71852 10.1009 3.71852 10.241 3.78976C10.3712 3.85608 10.4743 4.03542 10.6782 4.39408L11.6633 6.11371L11.6684 6.12249C11.8886 6.50727 12.0003 6.70239 12.049 6.90719C12.1031 7.13074 12.1031 7.36657 12.049 7.59013C11.9999 7.79648 11.8894 7.99302 11.6658 8.38362L9.14874 12.8331L9.14223 12.8445C8.92055 13.2324 8.80821 13.429 8.65251 13.5774C8.483 13.7396 8.2791 13.8574 8.05554 13.9238C7.85164 13.9803 7.62319 13.9803 7.16625 13.9803ZM12.0672 13.9803H14.848C15.2583 13.9803 15.4647 13.9803 15.5876 13.8993C15.7202 13.8133 15.8037 13.6683 15.8111 13.5112C15.8182 13.371 15.7197 13.2009 15.5266 12.8677C15.5199 12.8564 15.5133 12.8449 15.5065 12.8331L14.1135 10.4502L14.0977 10.4234C13.902 10.0924 13.8032 9.92523 13.6763 9.86062C13.5363 9.78937 13.3716 9.78937 13.2316 9.86062C13.1039 9.92695 13.0007 10.1014 12.7968 10.4527L11.4088 12.8356L11.4041 12.8438C11.2009 13.1945 11.0994 13.3698 11.1067 13.5136C11.1165 13.6708 11.1976 13.8157 11.3302 13.9017C11.4506 13.9803 11.657 13.9803 12.0672 13.9803Z" fill="white"/>
</svg>
