<svg width="20" height="20" viewBox="0 0 20 20" fill="none" xmlns="http://www.w3.org/2000/svg">
<path d="M9.99935 1.45898L4.79102 10.209L9.99935 13.334L15.2077 10.209L9.99935 1.45898ZM4.79102 11.2507L9.99935 18.5423L15.2077 11.2507L9.99935 14.3756L4.79102 11.2507Z" fill="#1976D2"/>
<path d="M4.5 11.0586L9.99995 14.5218V19.0007" fill="#53D3E0"/>
<path d="M15.5 11.0586L10 14.5218V19.0007" fill="#5A9DED"/>
<path d="M4.5 9.93875L9.99995 6.84925V0.5L4.5 9.93875Z" fill="#FFE94D"/>
<path d="M9.99995 13.4023V6.84961L4.5 9.93911L9.99995 13.4023Z" fill="#A7DF7E"/>
<path d="M10 0.5V6.84925L15.5 9.93875L10 0.5Z" fill="#FF9C92"/>
<path d="M10 6.84961V13.4023L15.5 9.93911L10 6.84961Z" fill="#D797D1"/>
</svg>
