<svg width="20" height="20" viewBox="0 0 20 20" fill="none" xmlns="http://www.w3.org/2000/svg">
<rect width="20" height="20" rx="10" fill="black"/>
<path d="M10 3.27734L5.7771 10.3718L10 12.9055L14.2229 10.3718L10 3.27734ZM5.7771 11.2164L10 17.1284L14.2229 11.2164L10 13.7501L5.7771 11.2164Z" fill="#1976D2"/>
<path d="M5.54053 11.0607L9.99987 13.8686V17.5001" fill="#53D3E0"/>
<path d="M14.4593 11.0607L10 13.8686V17.5001" fill="#5A9DED"/>
<path d="M5.54053 10.1529L9.99987 7.64794V2.5L5.54053 10.1529Z" fill="#FFE94D"/>
<path d="M9.99987 12.9609V7.64804L5.54053 10.153L9.99987 12.9609Z" fill="#A7DF7E"/>
<path d="M10 2.50009V7.64803L14.4593 10.153L10 2.50009Z" fill="#FF9C92"/>
<path d="M10 7.64804V12.9609L14.4593 10.153L10 7.64804Z" fill="#D797D1"/>
</svg>
