<svg width="20" height="20" viewBox="0 0 20 20" fill="none" xmlns="http://www.w3.org/2000/svg">
<rect width="20" height="20" rx="10" fill="#76FB8E"/>
<path d="M7.31297 7.7984C7.31297 7.46695 7.57352 7.19839 7.89506 7.19839H12.1754C12.497 7.19839 12.7575 6.92982 12.7575 6.59841V5.48867C12.7575 5.15723 12.497 4.88867 12.1754 4.88867H7.64692C7.32541 4.88867 7.06486 5.15723 7.06486 5.48867V6.34377C7.06486 6.67518 6.80434 6.94375 6.48279 6.94375H5.65434C5.3328 6.94375 5.07227 7.21231 5.07227 7.54376V9.41626C5.07227 9.74771 5.33389 10.0028 5.65543 10.0028H6.73199C7.05353 10.0028 7.31408 9.73425 7.31408 9.4028L7.31297 7.7984Z" fill="#131313"/>
<path d="M14.4191 10.003H13.3425C13.021 10.003 12.7604 10.2715 12.7604 10.6029V12.2137C12.7604 12.5451 12.4999 12.8136 12.1784 12.8136H7.89541C7.57386 12.8136 7.31331 13.0822 7.31331 13.4136V14.5234C7.31331 14.8548 7.57386 15.1234 7.89541 15.1234H12.4263C12.7478 15.1234 13.0046 14.8548 13.0046 14.5234V13.633C13.0046 13.3016 13.2652 13.0665 13.5867 13.0665H14.4189C14.7404 13.0665 15.0009 12.7979 15.0009 12.4665V10.596C15.0009 10.2646 14.7406 10.003 14.4191 10.003Z" fill="#131313"/>
<path d="M10.5642 8.8365H9.53014C9.19337 8.8365 8.91976 9.11831 8.91976 9.4657V10.5316C8.91976 10.8788 9.19315 11.1608 9.53014 11.1608H10.5642C10.901 11.1608 11.1746 10.879 11.1746 10.5316V9.4657C11.1746 9.11853 10.9013 8.8365 10.5642 8.8365Z" fill="#131313"/>
</svg>
