<svg width="20" height="20" viewBox="0 0 20 20" fill="none" xmlns="http://www.w3.org/2000/svg">
<rect width="20" height="20" rx="10" fill="black"/>
<path d="M10.0002 3.27734L5.77734 10.3718L10.0002 12.9055L14.2231 10.3718L10.0002 3.27734ZM5.77734 11.2164L10.0002 17.1284L14.2231 11.2164L10.0002 13.7501L5.77734 11.2164Z" fill="#1976D2"/>
<path d="M5.54102 11.0605L10.0004 13.8685V17.5" fill="#53D3E0"/>
<path d="M14.4593 11.0605L10 13.8685V17.5" fill="#5A9DED"/>
<path d="M5.54102 10.1529L10.0004 7.64794V2.5L5.54102 10.1529Z" fill="#FFE94D"/>
<path d="M10.0004 12.9613V7.64844L5.54102 10.1534L10.0004 12.9613Z" fill="#A7DF7E"/>
<path d="M10 2.5V7.64794L14.4593 10.1529L10 2.5Z" fill="#FF9C92"/>
<path d="M10 7.64844V12.9613L14.4593 10.1534L10 7.64844Z" fill="#D797D1"/>
</svg>
