<svg width="20" height="20" viewBox="0 0 20 20" fill="none" xmlns="http://www.w3.org/2000/svg">
<rect width="20" height="20" rx="10" fill="#13B5EC"/>
<path fill-rule="evenodd" clip-rule="evenodd" d="M10.9 7.71211L13.6 6.13711V9.28711L10.9 7.71211ZM13.6 14.4621L10 16.5621L6.4 14.4621V10.7871L10 12.8871L13.6 10.7871V14.4621ZM6.4 6.13711L9.1 7.71211L6.4 9.28711V6.13711ZM10.45 8.46211L13.15 10.0371L10.45 11.6121V8.46211ZM9.55 11.6121L6.85 10.0371L9.55 8.46211V11.6121ZM13.15 5.38711L10 7.18711L6.85 5.38711L10 3.51211L13.15 5.38711ZM5.5 5.08711V14.9121L10 17.4621L14.5 14.9121V5.08711L10 2.53711L5.5 5.08711Z" fill="white"/>
</svg>
