<svg width="20" height="20" viewBox="0 0 20 20" fill="none" xmlns="http://www.w3.org/2000/svg">
<path d="M13.3336 9.99935C15.6336 9.99935 17.5003 8.13268 17.5003 5.83268C17.5003 3.53268 15.6336 1.66602 13.3336 1.66602C11.0336 1.66602 9.16698 3.53268 9.16698 5.83268C9.16698 8.13268 11.0336 9.99935 13.3336 9.99935ZM17.8753 14.666C17.5503 14.3327 17.142 14.166 16.667 14.166H10.8336L9.10031 13.5577L9.37531 12.7743L10.8336 13.3327H13.167C13.4586 13.3327 13.692 13.216 13.8836 13.0243C14.0753 12.8327 14.167 12.5993 14.167 12.341C14.167 11.891 13.9503 11.5827 13.517 11.4077L7.45865 9.16602H5.83365V16.666L11.667 18.3327L18.3586 15.8327C18.367 15.391 18.2003 14.9993 17.8753 14.666ZM4.16698 9.16602H0.820312V18.3327H4.16698V9.16602Z" fill="white"/>
</svg>
