<svg width="32" height="32" viewBox="0 0 32 32" fill="none" xmlns="http://www.w3.org/2000/svg">
<path d="M14.3333 21.8334H16.8333V24.3334H14.3333V21.8334ZM16 7.66675C20.4583 7.85008 22.4 12.3501 19.75 15.7251C19.0583 16.5584 17.9417 17.1084 17.3917 17.8084C16.8333 18.5001 16.8333 19.3334 16.8333 20.1667H14.3333C14.3333 18.7751 14.3333 17.6001 14.8917 16.7667C15.4417 15.9334 16.5583 15.4417 17.25 14.8917C19.2667 13.0251 18.7667 10.3834 16 10.1667C15.337 10.1667 14.7011 10.4301 14.2322 10.899C13.7634 11.3678 13.5 12.0037 13.5 12.6667H11C11 11.3407 11.5268 10.0689 12.4645 9.13121C13.4021 8.19353 14.6739 7.66675 16 7.66675Z" fill="white"/>
</svg>
