<svg width="134" height="17" viewBox="0 0 134 17" fill="none" xmlns="http://www.w3.org/2000/svg">
<g clip-path="url(#clip0_14_49143)">
<path d="M5.69865 7.54387C6.51338 7.69669 7.2032 7.88689 7.76812 8.11498L7.76868 8.11612C8.33302 8.34424 8.78991 8.69575 9.13933 9.17008C9.48817 9.64442 9.66316 10.2676 9.66316 11.0408C9.66316 11.767 9.46229 12.4197 9.06055 12.9993C8.65882 13.5789 8.1029 14.0329 7.39282 14.3606C6.68275 14.6883 5.87926 14.8525 4.98295 14.8525C4.01687 14.8525 3.16105 14.6736 2.41609 14.3165C1.67113 13.9593 1.08597 13.4674 0.661157 12.8408C0.275735 12.2725 0.0551719 11.634 0.000593906 10.9253C-0.00840862 10.8076 0.0861182 10.708 0.203714 10.7097L2.13364 10.7391C2.2338 10.7403 2.31594 10.8161 2.32945 10.9157C2.40822 11.4919 2.66986 11.9634 3.11492 12.3314C3.60388 12.7355 4.24418 12.9376 5.03585 12.9376C5.69922 12.9376 6.2405 12.791 6.65967 12.4984C7.07885 12.2057 7.28817 11.8021 7.28817 11.2865C7.28817 10.9236 7.17169 10.6367 6.93876 10.4256C6.70582 10.215 6.38903 10.0508 5.98729 9.93366C5.58556 9.81649 4.97733 9.68178 4.16258 9.52952L4.07538 9.51196C3.30679 9.37102 2.64903 9.18085 2.10213 8.94085C1.55466 8.70082 1.11241 8.34649 0.774813 7.87784C0.437218 7.40916 0.268421 6.78878 0.268421 6.01559C0.268421 5.31312 0.457474 4.6803 0.836144 4.11825C1.21425 3.55558 1.74428 3.11693 2.42509 2.80052C3.10592 2.48408 3.87169 2.32617 4.72131 2.32617C5.61762 2.32617 6.41773 2.49033 7.12218 2.81806C7.82607 3.14579 8.37918 3.60541 8.78091 4.19691C9.14158 4.72899 9.35481 5.31935 9.41952 5.96917C9.43135 6.08802 9.33681 6.19049 9.2181 6.18933L7.28591 6.17463C7.18801 6.17406 7.10643 6.10218 7.08955 6.00538C7.00346 5.51974 6.76995 5.11899 6.38847 4.80313C5.9631 4.45161 5.40775 4.27616 4.72076 4.27616C4.09226 4.27616 3.58587 4.41087 3.20157 4.6803C2.81728 4.94974 2.62541 5.342 2.62541 5.85708C2.62541 6.2086 2.73906 6.48368 2.96582 6.68292C3.19256 6.88217 3.50372 7.04067 3.89984 7.15727C4.29538 7.27444 4.88954 7.40348 5.6812 7.54387H5.69865Z" fill="white"/>
<path fill-rule="evenodd" clip-rule="evenodd" d="M19.5359 12.829H19.8394L19.8404 12.8295C19.9516 12.8295 20.0421 12.9202 20.0421 13.0327V14.5382C20.0421 14.65 19.9521 14.7413 19.8404 14.7413H18.2827C17.7407 14.7413 17.3024 14.2986 17.3024 13.7532V13.4531C17.3024 13.2032 16.9751 13.1171 16.8505 13.3327C16.5945 13.715 16.3142 14.0282 15.9784 14.2723C15.6047 14.5444 15.2309 14.7356 14.7711 14.8097C14.3316 14.881 13.882 14.8559 13.4437 14.7875C12.8701 14.6979 12.3134 14.4937 11.8473 14.1394C11.2261 13.6676 10.9158 13.0184 10.9158 12.1917C10.9158 11.2362 11.2556 10.4985 11.9351 9.97879C12.6147 9.45967 13.6108 9.20007 14.9229 9.20007H16.5407C16.6517 9.20007 16.7423 9.10937 16.7423 8.99699V8.72201C16.7423 7.84289 16.0662 7.25242 15.116 7.25242C14.612 7.25242 14.2291 7.3614 13.9069 7.57989C13.6289 7.76871 13.4488 8.01175 13.3673 8.31012C13.3435 8.39684 13.2631 8.45615 13.1736 8.45615H11.3875C11.2612 8.45615 11.1678 8.34092 11.1887 8.21599C11.3252 7.41044 11.7245 6.77664 12.3865 6.31395C13.1124 5.80623 14.0372 5.54722 15.2207 5.54722C16.4745 5.54722 17.2746 5.83303 17.9541 6.39327C18.6338 6.95349 18.9734 7.771 18.9734 8.84523V12.2271C18.9734 12.4399 19.0234 12.5934 19.123 12.6875C19.2222 12.7822 19.3603 12.829 19.5359 12.829ZM16.4688 12.1472C16.65 11.8226 16.7412 11.4421 16.7412 11.0051V10.9606C16.7412 10.8488 16.6512 10.7575 16.5396 10.7575H14.8866C14.3356 10.7575 13.9115 10.8671 13.6125 11.085C13.314 11.3035 13.1645 11.6133 13.1645 12.0143C13.1645 12.3686 13.2993 12.6516 13.5689 12.8643C13.8378 13.0766 14.1952 13.1827 14.6408 13.1827C15.4076 13.1827 16.0883 12.8278 16.4688 12.1472Z" fill="white"/>
<path d="M26.2836 2.50512H23.9721C22.7524 2.50512 21.7632 3.50307 21.7632 4.73475V5.71394C21.7632 5.82596 21.673 5.91637 21.5626 5.91637H20.2427C20.1318 5.91637 20.0421 6.00735 20.0421 6.1188V7.63706C20.0421 7.74907 20.1323 7.83951 20.2427 7.83951H21.5626C21.6736 7.83951 21.7632 7.93049 21.7632 8.04194V14.6501C21.7632 14.7621 21.8534 14.8525 21.9638 14.8525H23.7655C23.8764 14.8525 23.9659 14.7615 23.9659 14.6501V8.04194C23.9659 7.9299 24.0561 7.83951 24.1665 7.83951H26.2655C26.3767 7.83951 26.4661 7.7485 26.4661 7.63706V6.1188C26.4661 6.00678 26.3761 5.91637 26.2655 5.91637H24.1665C24.0555 5.91637 23.9659 5.82539 23.9659 5.71394V4.83369C23.9659 4.60965 24.1457 4.42826 24.3676 4.42826H26.2836C26.3946 4.42826 26.4842 4.33728 26.4842 4.22581V2.70757C26.4842 2.59553 26.394 2.50512 26.2836 2.50512Z" fill="white"/>
<path fill-rule="evenodd" clip-rule="evenodd" d="M33.5705 6.08378C34.2572 6.43825 34.799 6.94628 35.1955 7.60726H35.1945C35.5908 8.26881 35.7895 9.03655 35.7895 9.91046C35.7895 10.0286 35.7866 10.1587 35.7809 10.3003C35.778 10.3785 35.7718 10.455 35.7632 10.5298C35.7517 10.632 35.6637 10.7079 35.5606 10.7079H29.2214C29.1001 10.7079 29.0045 10.8129 29.0183 10.9328C29.0251 10.991 29.0337 11.0492 29.0428 11.1069C29.0698 11.2718 29.1087 11.4351 29.1625 11.5932C29.2128 11.7405 29.2758 11.8832 29.3529 12.0184C29.5487 12.3615 29.8148 12.6269 30.1523 12.8158C30.4899 13.0048 30.8836 13.099 31.3333 13.099C31.878 13.099 32.3335 12.9745 32.7008 12.7268C33.0287 12.5048 33.2575 12.2034 33.3869 11.8215C33.4148 11.7388 33.4921 11.6817 33.5802 11.6817H35.4187C35.5502 11.6817 35.647 11.8044 35.6173 11.9323C35.5028 12.4254 35.2882 12.8792 34.9742 13.2936C34.6073 13.7782 34.1244 14.159 33.527 14.4364C32.9292 14.7138 32.2511 14.8525 31.4935 14.8525C30.5105 14.8525 29.6552 14.6641 28.9272 14.2857C28.1989 13.9078 27.6399 13.3673 27.249 12.6646C26.8589 11.9625 26.6632 11.1736 26.6632 10.229C26.6632 9.28428 26.8525 8.4606 27.2313 7.75796C27.6101 7.05528 28.1429 6.51245 28.8295 6.1283C29.5161 5.74415 30.2926 5.54722 31.1914 5.54722C32.0903 5.54722 32.8839 5.7293 33.5705 6.08378ZM29.3209 9.16613H33.2908V9.16669C33.4213 9.16669 33.519 9.04568 33.4898 8.91839C33.3799 8.43437 33.1518 8.05076 32.8066 7.76709C32.4045 7.43659 31.8952 7.27106 31.2795 7.27106C30.9008 7.27106 30.5517 7.34753 30.2319 7.5011C29.9127 7.65464 29.6523 7.87612 29.4508 8.16551C29.2946 8.38985 29.1847 8.64099 29.1212 8.91896C29.0927 9.04568 29.1904 9.16613 29.3209 9.16613Z" fill="white"/>
<path d="M42.072 2.56808C42.072 2.27555 42.3163 2.03851 42.6179 2.03851L44.0775 2.03952C44.379 2.03952 44.6233 1.80248 44.6233 1.50996V0.53054C44.6233 0.238018 44.3913 0 44.0897 0H42.3862C42.0847 0 41.8403 0.237026 41.8403 0.529546V1.28325C41.8403 1.57577 41.596 1.81279 41.2945 1.81279H40.5166C40.215 1.81279 39.9707 2.04983 39.9707 2.34233V14.6577C39.9707 14.9502 40.215 15.1872 40.5166 15.1872H41.2945C41.596 15.1872 41.8403 15.4242 41.8403 15.7168V16.4705C41.8403 16.763 42.0847 17 42.3862 17H44.0897C44.3913 17 44.6233 16.762 44.6233 16.4695V15.49C44.6233 15.1975 44.379 14.9605 44.0775 14.9605L42.6179 14.9615C42.3163 14.9615 42.072 14.7245 42.072 14.4319V2.56808Z" fill="white"/>
<path d="M131.896 2.56808C131.896 2.27555 131.652 2.03851 131.35 2.03851L129.89 2.03952C129.589 2.03952 129.345 1.80248 129.345 1.50996V0.53054C129.345 0.238018 129.577 0 129.878 0H131.582C131.883 0 132.128 0.237026 132.128 0.529546V1.28325C132.128 1.57577 132.372 1.81279 132.673 1.81279H133.451C133.753 1.81279 133.997 2.04983 133.997 2.34233V14.6577C133.997 14.9502 133.753 15.1872 133.451 15.1872H132.673C132.372 15.1872 132.128 15.4242 132.128 15.7168V16.4705C132.128 16.763 131.883 17 131.582 17H129.878C129.577 17 129.345 16.762 129.345 16.4695V15.49C129.345 15.1975 129.589 14.9605 129.89 14.9605L131.35 14.9615C131.652 14.9615 131.896 14.7245 131.896 14.4319V2.56808Z" fill="white"/>
<path d="M118.204 14.4469V2.11955H122.73C123.716 2.11955 124.527 2.28978 125.16 2.63025C125.806 2.95898 126.288 3.41098 126.605 3.98626C126.922 4.5498 127.08 5.1779 127.08 5.87058C127.08 6.62196 126.88 7.30877 126.481 7.93101C126.094 8.55325 125.483 9.00525 124.65 9.28702L127.203 14.4469H124.615L122.325 9.5864H120.458V14.4469H118.204ZM120.458 7.93101H122.589C123.341 7.93101 123.893 7.74904 124.245 7.38509C124.597 7.02114 124.773 6.53978 124.773 5.94103C124.773 5.35401 124.597 4.8844 124.245 4.53219C123.904 4.17998 123.347 4.00387 122.572 4.00387H120.458V7.93101Z" fill="white"/>
<path d="M108.023 14.4469V2.11955H116.071V3.93343H110.277V7.31464H115.543V9.07569H110.277V12.633H116.071V14.4469H108.023Z" fill="white"/>
<path d="M95.3313 14.4469V2.11955H97.5854L103.379 10.8015V2.11955H105.633V14.4469H103.379L97.5854 5.78253V14.4469H95.3313Z" fill="white"/>
<path d="M82.6393 14.4469V2.11955H84.8935L90.6873 10.8015V2.11955H92.9415V14.4469H90.6873L84.8935 5.78253V14.4469H82.6393Z" fill="white"/>
<path d="M69.4989 14.4469L74.0072 2.11955H76.5431L81.0514 14.4469H78.6563L77.6701 11.594H72.8625L71.8587 14.4469H69.4989ZM73.4788 9.83295H77.0538L75.2575 4.70829L73.4788 9.83295Z" fill="white"/>
<path d="M63.0443 14.6582C61.7998 14.6582 60.7315 14.394 59.8392 13.8657C58.9469 13.3257 58.2601 12.5802 57.7788 11.6292C57.2974 10.6665 57.0567 9.55703 57.0567 8.30081C57.0567 7.0446 57.2974 5.93514 57.7788 4.97243C58.2601 4.00972 58.9469 3.25834 59.8392 2.71829C60.7315 2.17823 61.7998 1.9082 63.0443 1.9082C64.5236 1.9082 65.7329 2.27802 66.6721 3.01766C67.6231 3.74556 68.2159 4.77284 68.4508 6.0995H65.9677C65.815 5.4303 65.4863 4.90786 64.9815 4.53217C64.4884 4.14474 63.8309 3.95102 63.0091 3.95102C61.8703 3.95102 60.978 4.33845 60.3323 5.11331C59.6866 5.88818 59.3637 6.95068 59.3637 8.30081C59.3637 9.65095 59.6866 10.7135 60.3323 11.4883C60.978 12.2514 61.8703 12.633 63.0091 12.633C63.8309 12.633 64.4884 12.4569 64.9815 12.1047C65.4863 11.7407 65.815 11.2418 65.9677 10.6078H68.4508C68.2159 11.8757 67.6231 12.8678 66.6721 13.584C65.7329 14.3001 64.5236 14.6582 63.0443 14.6582Z" fill="white"/>
<path d="M51.1628 14.6582C50.2588 14.6582 49.4605 14.5056 48.7678 14.2003C48.0751 13.8833 47.5292 13.4372 47.13 12.8619C46.7309 12.2749 46.5254 11.5646 46.5137 10.7311H48.8911C48.9146 11.3063 49.12 11.7936 49.5075 12.1927C49.9066 12.5802 50.4526 12.7739 51.1452 12.7739C51.744 12.7739 52.2195 12.633 52.5717 12.3512C52.9239 12.0577 53.1 11.6703 53.1 11.1889C53.1 10.6841 52.9415 10.2908 52.6245 10.009C52.3193 9.72726 51.9084 9.49833 51.3918 9.32222C50.8752 9.14612 50.3234 8.95827 49.7364 8.75869C48.7854 8.42996 48.0575 8.00731 47.5527 7.49073C47.0596 6.97416 46.8131 6.28735 46.8131 5.4303C46.8013 4.7024 46.9715 4.08016 47.3238 3.56359C47.6877 3.03527 48.1808 2.63023 48.803 2.34847C49.4253 2.05496 50.1414 1.9082 50.9515 1.9082C51.7733 1.9082 52.4954 2.05496 53.1176 2.34847C53.7516 2.64197 54.2447 3.05288 54.5969 3.5812C54.9609 4.10951 55.1546 4.73762 55.178 5.46552H52.7654C52.7537 5.03113 52.5834 4.64957 52.2547 4.32084C51.9377 3.98037 51.4916 3.81014 50.9163 3.81014C50.4232 3.7984 50.0064 3.92167 49.666 4.17996C49.3372 4.4265 49.1729 4.79045 49.1729 5.27181C49.1729 5.68272 49.302 6.01145 49.5603 6.258C49.8186 6.4928 50.1708 6.69239 50.6169 6.85675C51.0631 7.02112 51.5738 7.19722 52.149 7.38507C52.7595 7.59639 53.3172 7.84294 53.822 8.12471C54.3269 8.40648 54.7319 8.78217 55.0372 9.25178C55.3424 9.70965 55.495 10.3025 55.495 11.0304C55.495 11.6762 55.3307 12.2749 55.0019 12.8267C54.6732 13.3785 54.186 13.8246 53.5403 14.1651C52.8946 14.4938 52.1021 14.6582 51.1628 14.6582Z" fill="white"/>
</g>
<defs>
<clipPath id="clip0_14_49143">
<rect width="133.998" height="17" fill="white"/>
</clipPath>
</defs>
</svg>
