<svg width="20" height="20" viewBox="0 0 20 20" fill="none" xmlns="http://www.w3.org/2000/svg">
<path d="M18.0917 16.9077L16.9083 18.091C16.7522 18.2462 16.541 18.3333 16.3208 18.3333C16.1007 18.3333 15.8895 18.2462 15.7333 18.091L5.83334 8.20768C5.56235 8.28619 5.28211 8.32823 5.00001 8.33268C4.46943 8.3323 3.9466 8.20527 3.475 7.96215C3.0034 7.71903 2.59665 7.36684 2.28856 6.93487C1.98048 6.5029 1.77996 6.00362 1.70368 5.47856C1.6274 4.95349 1.67757 4.41779 1.85001 3.91602L3.96668 6.03268L4.40834 5.59102L5.59168 4.40768L6.03334 3.96602L3.91668 1.84935C4.41845 1.67691 4.95415 1.62674 5.47922 1.70302C6.00429 1.7793 6.50356 1.97982 6.93553 2.2879C7.3675 2.59599 7.71969 3.00274 7.96281 3.47434C8.20593 3.94594 8.33296 4.46877 8.33334 4.99935C8.32889 5.28145 8.28685 5.56169 8.20834 5.83268L18.0917 15.7327C18.2469 15.8888 18.334 16.1 18.334 16.3202C18.334 16.5403 18.2469 16.7515 18.0917 16.9077ZM1.90834 15.7327C1.75313 15.8888 1.66602 16.1 1.66602 16.3202C1.66602 16.5403 1.75313 16.7515 1.90834 16.9077L3.09168 18.091C3.24781 18.2462 3.45902 18.3333 3.67918 18.3333C3.89933 18.3333 4.11054 18.2462 4.26668 18.091L8.82501 13.541L6.46668 11.1827M16.6667 1.66602L13.3333 3.33268V4.99935L11.525 6.80768L13.1917 8.47435L15 6.66602H16.6667L18.3333 3.33268L16.6667 1.66602Z" fill="white"/>
</svg>
