<svg width="32" height="32" viewBox="0 0 32 32" fill="none" xmlns="http://www.w3.org/2000/svg">
<path d="M11 6.83398V8.50065H10.1667C9.24167 8.50065 8.5 9.24232 8.5 10.1673V21.834C8.5 22.7506 9.24167 23.5006 10.1667 23.5006H15.25C16.3 24.534 17.7417 25.1673 19.3333 25.1673C22.5583 25.1673 25.1667 22.559 25.1667 19.334C25.1667 17.7423 24.5333 16.3007 23.5 15.2507V10.1673C23.5 9.25065 22.7583 8.50065 21.8333 8.50065H21V6.83398H19.3333V8.50065H12.6667V6.83398M10.1667 10.1673H21.8333V11.834H10.1667M10.1667 13.5007H21.8333V14.059C21.075 13.7007 20.225 13.5007 19.3333 13.5007C16.1083 13.5007 13.5 16.109 13.5 19.334C13.5 20.2256 13.7 21.0756 14.0583 21.834H10.1667M19.3333 15.2923C21.5667 15.2923 23.375 17.1006 23.375 19.334C23.375 21.5673 21.5667 23.3757 19.3333 23.3757C17.1 23.3757 15.2917 21.5673 15.2917 19.334C15.2917 17.1006 17.1 15.2923 19.3333 15.2923ZM18.5 16.834V19.909L21.1583 21.4423L21.7833 20.359L19.75 19.184V16.834H18.5Z" fill="white"/>
</svg>
