<svg width="16" height="8" viewBox="0 0 16 8" fill="none" xmlns="http://www.w3.org/2000/svg">
<path d="M4.66699 5.33342V3.27341C4.18699 3.05341 3.74033 2.78675 3.33366 2.47341V5.33342H4.66699ZM3.33366 8.00008H2.00033V6.66675H0.666992V5.33342H2.00033V0.666748H3.33366V1.62008C4.53366 2.66675 6.18033 3.33341 8.00033 3.33341C9.82032 3.33341 11.467 2.66675 12.667 1.62008V0.666748H14.0003V5.33342H15.3337V6.66675H14.0003V8.00008H12.667V6.66675H3.33366V8.00008ZM11.3337 3.27341V5.33342H12.667V2.47341C12.2603 2.78675 11.8137 3.05341 11.3337 3.27341ZM10.667 5.33342V3.54675C10.2403 3.70008 9.79366 3.81341 9.33366 3.89341V5.33342H10.667ZM8.66699 5.33342V3.97341L8.00033 4.00008L7.33366 3.97341V5.33342H8.66699ZM6.66699 5.33342V3.89341C6.20699 3.81341 5.76033 3.70008 5.33366 3.54675V5.33342H6.66699Z" fill="white"/>
</svg>
