<svg width="10" height="17" viewBox="0 0 10 17" fill="none" xmlns="http://www.w3.org/2000/svg">
<path d="M3.33333 14.1667H5.83333V16.6667H3.33333V14.1667ZM5 0C9.45833 0.183333 11.4 4.68333 8.75 8.05833C8.05833 8.89167 6.94167 9.44167 6.39167 10.1417C5.83333 10.8333 5.83333 11.6667 5.83333 12.5H3.33333C3.33333 11.1083 3.33333 9.93333 3.89167 9.1C4.44167 8.26667 5.55833 7.775 6.25 7.225C8.26667 5.35833 7.76667 2.71667 5 2.5C4.33696 2.5 3.70107 2.76339 3.23223 3.23223C2.76339 3.70107 2.5 4.33696 2.5 5H0C0 3.67392 0.526784 2.40215 1.46447 1.46447C2.40215 0.526784 3.67392 0 5 0Z" fill="white"/>
</svg>
